<svg width="68" height="93" viewBox="0 0 68 93" fill="none" xmlns="http://www.w3.org/2000/svg">
<path d="M6.53711 76.7793H8.27148V80.2363C8.42383 80.1309 8.60352 80.0312 8.81055 79.9375C9.01758 79.8438 9.24023 79.7617 9.47852 79.6914C9.7168 79.6211 9.96289 79.5664 10.2168 79.5273C10.4707 79.4844 10.7246 79.4629 10.9785 79.4629C11.5645 79.4629 12.1016 79.5488 12.5898 79.7207C13.082 79.8926 13.5039 80.1348 13.8555 80.4473C14.207 80.7598 14.4805 81.1348 14.6758 81.5723C14.875 82.0059 14.9746 82.4863 14.9746 83.0137C14.9746 83.5645 14.8711 84.0625 14.6641 84.5078C14.457 84.9492 14.1699 85.3281 13.8027 85.6445C13.4395 85.957 13.0059 86.1992 12.502 86.3711C12.002 86.5391 11.459 86.623 10.873 86.623C10.623 86.623 10.375 86.6074 10.1289 86.5762C9.88672 86.5449 9.65234 86.502 9.42578 86.4473C9.20312 86.3926 8.99219 86.3281 8.79297 86.2539C8.59766 86.1758 8.42383 86.0918 8.27148 86.002V86.5H6.53711V76.7793ZM8.27148 84.3262C8.44727 84.4668 8.63281 84.5859 8.82812 84.6836C9.02344 84.7812 9.22266 84.8613 9.42578 84.9238C9.62891 84.9863 9.83398 85.0332 10.041 85.0645C10.248 85.0918 10.4492 85.1055 10.6445 85.1055C11.043 85.1055 11.3965 85.0527 11.7051 84.9473C12.0176 84.8379 12.2793 84.6895 12.4902 84.502C12.7051 84.3145 12.8691 84.0938 12.9824 83.8398C13.0957 83.5859 13.1523 83.3105 13.1523 83.0137C13.1523 82.7363 13.0957 82.4746 12.9824 82.2285C12.873 81.9824 12.7129 81.7676 12.502 81.584C12.2949 81.3965 12.043 81.25 11.7461 81.1445C11.4531 81.0352 11.123 80.9805 10.7559 80.9805C10.5215 80.9805 10.2871 81.0039 10.0527 81.0508C9.81836 81.0938 9.5918 81.1562 9.37305 81.2383C9.1582 81.3203 8.95508 81.4199 8.76367 81.5371C8.57617 81.6543 8.41211 81.7852 8.27148 81.9297V84.3262ZM16.5801 79.5801H18.3086V82.9551C18.3086 83.2754 18.3438 83.5684 18.4141 83.834C18.4844 84.0957 18.6035 84.3203 18.7715 84.5078C18.9434 84.6953 19.1699 84.8418 19.4512 84.9473C19.7363 85.0488 20.0898 85.0996 20.5117 85.0996C20.7109 85.0996 20.9121 85.0781 21.1152 85.0352C21.3223 84.9922 21.5195 84.9336 21.707 84.8594C21.8945 84.7812 22.0684 84.6895 22.2285 84.584C22.3926 84.4785 22.5332 84.3633 22.6504 84.2383V79.5801H24.3848V86.5H22.6504V85.9082C22.2246 86.1621 21.7969 86.3438 21.3672 86.4531C20.9375 86.5625 20.5293 86.6172 20.1426 86.6172C19.5098 86.6172 18.9668 86.541 18.5137 86.3887C18.0645 86.2363 17.6953 86.0156 17.4062 85.7266C17.1211 85.4336 16.9121 85.0762 16.7793 84.6543C16.6465 84.2285 16.5801 83.7441 16.5801 83.2012V79.5801ZM26.0547 83.0723C26.0547 82.5215 26.1582 82.0254 26.3652 81.584C26.5723 81.1387 26.8574 80.7598 27.2207 80.4473C27.5879 80.1309 28.0215 79.8887 28.5215 79.7207C29.0254 79.5488 29.5703 79.4629 30.1562 79.4629C30.4062 79.4629 30.6523 79.4785 30.8945 79.5098C31.1406 79.541 31.375 79.584 31.5977 79.6387C31.8242 79.6934 32.0352 79.7598 32.2305 79.8379C32.4297 79.9121 32.6055 79.9941 32.7578 80.084V76.7793H34.4922V86.5H32.7578V85.8496C32.6055 85.9551 32.4258 86.0547 32.2188 86.1484C32.0117 86.2422 31.7891 86.3242 31.5508 86.3945C31.3125 86.4648 31.0645 86.5195 30.8066 86.5586C30.5527 86.6016 30.3008 86.623 30.0508 86.623C29.4648 86.623 28.9258 86.5371 28.4336 86.3652C27.9453 86.1934 27.5254 85.9512 27.1738 85.6387C26.8223 85.3262 26.5469 84.9531 26.3477 84.5195C26.1523 84.082 26.0547 83.5996 26.0547 83.0723ZM27.877 83.0723C27.877 83.3496 27.9316 83.6113 28.041 83.8574C28.1543 84.1035 28.3145 84.3203 28.5215 84.5078C28.7324 84.6914 28.9844 84.8379 29.2773 84.9473C29.5742 85.0527 29.9062 85.1055 30.2734 85.1055C30.5078 85.1055 30.7422 85.084 30.9766 85.041C31.2109 84.9941 31.4355 84.9297 31.6504 84.8477C31.8691 84.7656 32.0723 84.666 32.2598 84.5488C32.4512 84.4316 32.6172 84.3008 32.7578 84.1562V81.7598C32.582 81.6191 32.3965 81.5 32.2012 81.4023C32.0059 81.3047 31.8066 81.2246 31.6035 81.1621C31.4004 81.0996 31.1953 81.0547 30.9883 81.0273C30.7812 80.9961 30.5801 80.9805 30.3848 80.9805C29.9863 80.9805 29.6309 81.0352 29.3184 81.1445C29.0098 81.25 28.748 81.3965 28.5332 81.584C28.3223 81.7715 28.1602 81.9922 28.0469 82.2461C27.9336 82.5 27.877 82.7754 27.877 83.0723ZM37.7031 87.6719C37.9219 87.75 38.1445 87.8145 38.3711 87.8652C38.5977 87.9199 38.8164 87.9629 39.0273 87.9941C39.2422 88.0293 39.4473 88.0527 39.6426 88.0645C39.8379 88.0801 40.0117 88.0879 40.1641 88.0879C40.625 88.0879 41.0254 88.0312 41.3652 87.918C41.709 87.8086 41.9941 87.6602 42.2207 87.4727C42.4512 87.2852 42.623 87.0664 42.7363 86.8164C42.8496 86.5703 42.9062 86.3086 42.9062 86.0312V85.7324C42.7578 85.834 42.584 85.9316 42.3848 86.0254C42.1855 86.1191 41.9668 86.2012 41.7285 86.2715C41.4902 86.3418 41.2363 86.3984 40.9668 86.4414C40.7012 86.4844 40.4258 86.5059 40.1406 86.5059C39.5742 86.5059 39.0508 86.4219 38.5703 86.2539C38.0898 86.082 37.6738 85.8438 37.3223 85.5391C36.9707 85.2305 36.6953 84.8613 36.4961 84.4316C36.3008 84.002 36.2031 83.5254 36.2031 83.002C36.2031 82.4668 36.3066 81.9824 36.5137 81.5488C36.7207 81.1113 37.0059 80.7383 37.3691 80.4297C37.7363 80.1211 38.1699 79.8828 38.6699 79.7148C39.1699 79.5469 39.7129 79.4629 40.2988 79.4629C40.5488 79.4629 40.7969 79.4785 41.043 79.5098C41.2891 79.541 41.5234 79.584 41.7461 79.6387C41.9727 79.6934 42.1836 79.7598 42.3789 79.8379C42.5781 79.9121 42.7539 79.9941 42.9062 80.084V79.5859H44.6406V85.709C44.6406 86.3379 44.5449 86.8945 44.3535 87.3789C44.1621 87.8633 43.8809 88.2695 43.5098 88.5977C43.1426 88.9297 42.6855 89.1797 42.1387 89.3477C41.5918 89.5195 40.9648 89.6055 40.2578 89.6055C40.0039 89.6055 39.7402 89.5938 39.4668 89.5703C39.1934 89.5508 38.918 89.5195 38.6406 89.4766C38.3672 89.4375 38.0957 89.3887 37.8262 89.3301C37.5605 89.2754 37.3047 89.2109 37.0586 89.1367L37.7031 87.6719ZM38.0254 82.9844C38.0254 83.2617 38.0801 83.5234 38.1895 83.7695C38.3027 84.0117 38.4629 84.2246 38.6699 84.4082C38.877 84.5879 39.127 84.7305 39.4199 84.8359C39.7129 84.9375 40.043 84.9883 40.4102 84.9883C40.6484 84.9883 40.8848 84.9668 41.1191 84.9238C41.3574 84.877 41.584 84.8125 41.7988 84.7305C42.0176 84.6484 42.2207 84.5488 42.4082 84.4316C42.5996 84.3145 42.7656 84.1836 42.9062 84.0391V81.7598C42.7305 81.6191 42.5449 81.5 42.3496 81.4023C42.1543 81.3047 41.9551 81.2246 41.752 81.1621C41.5488 81.0996 41.3438 81.0547 41.1367 81.0273C40.9297 80.9961 40.7285 80.9805 40.5332 80.9805C40.1348 80.9805 39.7793 81.0332 39.4668 81.1387C39.1582 81.2441 38.8965 81.3887 38.6816 81.5723C38.4707 81.752 38.3086 81.9629 38.1953 82.2051C38.082 82.4473 38.0254 82.707 38.0254 82.9844ZM46.2871 83.0195C46.2871 82.5508 46.3828 82.1035 46.5742 81.6777C46.7656 81.248 47.041 80.8691 47.4004 80.541C47.7598 80.2129 48.1992 79.9512 48.7188 79.7559C49.2422 79.5605 49.8359 79.4629 50.5 79.4629C51.1602 79.4629 51.7539 79.5625 52.2812 79.7617C52.8125 79.957 53.2617 80.2266 53.6289 80.5703C54 80.9141 54.2832 81.3184 54.4785 81.7832C54.6777 82.248 54.7773 82.7461 54.7773 83.2773C54.7773 83.3438 54.7754 83.416 54.7715 83.4941C54.7715 83.5684 54.7676 83.6367 54.7598 83.6992H48.2207C48.2949 83.9062 48.4141 84.0957 48.5781 84.2676C48.7461 84.4395 48.9551 84.5879 49.2051 84.7129C49.4551 84.8379 49.7441 84.9355 50.0723 85.0059C50.4004 85.0723 50.7637 85.1055 51.1621 85.1055C51.5605 85.1055 51.957 85.0645 52.3516 84.9824C52.7461 84.8965 53.123 84.7891 53.4824 84.6602L54.0684 85.9844C53.8418 86.0898 53.6113 86.1836 53.377 86.2656C53.1465 86.3438 52.9043 86.4102 52.6504 86.4648C52.4004 86.5156 52.1367 86.5547 51.8594 86.582C51.5859 86.6094 51.2969 86.623 50.9922 86.623C50.2148 86.623 49.5332 86.5293 48.9473 86.3418C48.3613 86.1543 47.8711 85.8984 47.4766 85.5742C47.082 85.25 46.7852 84.8691 46.5859 84.4316C46.3867 83.9941 46.2871 83.5234 46.2871 83.0195ZM52.9375 82.3457C52.875 82.1543 52.7773 81.9766 52.6445 81.8125C52.5156 81.6445 52.3535 81.5 52.1582 81.3789C51.9629 81.2539 51.7363 81.1562 51.4785 81.0859C51.2207 81.0156 50.9375 80.9805 50.6289 80.9805C50.3008 80.9805 50.002 81.0176 49.7324 81.0918C49.4629 81.166 49.2266 81.2656 49.0234 81.3906C48.8203 81.5156 48.6504 81.6602 48.5137 81.8242C48.3809 81.9883 48.2832 82.1621 48.2207 82.3457H52.9375ZM57.6895 80.8867H56.0195V79.5859H57.6895V77.4355H59.4238V79.5859H61.0938V80.8867H59.4238V86.5H57.6895V80.8867Z" fill="#316CF4"/>
<path d="M8.02148 17.5244H38.1924C41.8779 17.5244 45.0817 17.9219 47.8037 18.7168C50.5498 19.4876 52.8262 20.5596 54.6328 21.9326C56.4395 23.3057 57.7764 24.9437 58.6436 26.8467C59.5348 28.7256 59.9805 30.7611 59.9805 32.9531C59.9805 36.5423 58.8483 39.6859 56.584 42.3838C59.1855 43.9255 61.1247 45.9248 62.4014 48.3818C63.6781 50.8389 64.3164 53.6331 64.3164 56.7646C64.3164 59.3903 63.8708 61.763 62.9795 63.8828C62.1123 66.0026 60.7754 67.8213 58.9688 69.3389C57.1862 70.8324 54.9219 71.9886 52.1758 72.8076C49.4538 73.6025 46.238 74 42.5283 74H8.02148V17.5244ZM42.6006 39.2041C43.5882 39.2041 44.5518 39.2402 45.4912 39.3125C47.1051 37.7708 47.9121 36.0124 47.9121 34.0371C47.9121 31.9896 47.1051 30.4118 45.4912 29.3037C43.9014 28.1715 41.5648 27.6055 38.4814 27.6055H19.4756V39.2041H42.6006ZM42.8174 64.0273C45.9007 64.0273 48.2373 63.3649 49.8271 62.04C51.4411 60.7152 52.248 58.8483 52.248 56.4395C52.248 54.0306 51.4411 52.1517 49.8271 50.8027C48.2373 49.4538 45.9007 48.7793 42.8174 48.7793H19.4756V64.0273H42.8174Z" fill="#316CF4"/>
</svg>
